<svg xmlns="http://www.w3.org/2000/svg" width="164" height="50" viewBox="0 0 164 50">
    <g fill="none" fill-rule="evenodd">
        <g fill="#FFF">
            <g>
                <path d="M144.031 13.08c-3.025-2.712-5.792-3.607-8.75-3.607-2.96 0-6.66 1.012-6.66 4.775 0 3.155 2.827 4.224 7.335 5.642 6.455 2.084 14.793 4.776 14.793 14.25 0 10.953-8.81 15.86-18.224 15.86-6.794 0-13.656-2.485-17.822-6.855l7.05-7.231c2.81 3.022 7.004 4.61 10.772 4.61 3.494 0 6.59-1.349 6.59-5.175 0-3.63-3.635-4.843-9.888-6.868-6.047-1.946-12.169-4.964-12.169-13.56C117.058 4.367 126.607 0 135.48 0c5.383 0 11.436 2.019 15.605 5.843l-7.054 7.237zM31.482 30.244H19.516l6.046-16.333 5.92 16.333zm19.634 18.545L31.64 1.205H20.186L0 48.79h12.722l3.491-9.34h18.435l3.697 9.34h12.77zM91.975 1.205H79.266L68.238 35.591 57.01 1.205H44.099L62.12 48.79h11.501L91.975 1.205zm4.607 47.584h11.565V1.205H96.582V48.79zm59.211-43.534c0 2.253 1.821 4.015 4.061 4.015 2.266 0 4.089-1.762 4.089-4.015 0-2.25-1.823-4.05-4.089-4.05-2.24 0-4.06 1.8-4.06 4.05zm.645 0c0-1.895 1.534-3.427 3.416-3.427 1.904 0 3.446 1.532 3.446 3.427 0 1.874-1.542 3.43-3.446 3.43-1.882 0-3.416-1.556-3.416-3.43zm1.84 2.269h.823v-1.91h.601l1.059 1.91h.997l-1.232-2.001c.646-.144 1.057-.573 1.057-1.234 0-.981-.844-1.34-1.72-1.34h-1.586v4.575zm.823-2.574V3.648h.745c.43 0 .915.123.915.623 0 .553-.536.679-1.017.679h-.643z" transform="translate(-160 -15) translate(160 15)"/>
            </g>
        </g>
    </g>
</svg>
